<?xml version="1.0" encoding="iso-8859-1"?>
<!-- Generator: Adobe Illustrator 19.0.0, SVG Export Plug-In . SVG Version: 6.00 Build 0)  -->
<svg version="1.1" id="Layer_1" xmlns="http://www.w3.org/2000/svg" xmlns:xlink="http://www.w3.org/1999/xlink" x="0px" y="0px"
	 viewBox="0 0 512 512" style="enable-background:new 0 0 512 512;" xml:space="preserve">
<path style="fill:#72CDED;" d="M388.383,360.123V512H123.624V360.124c0-38.518,27.509-70.626,63.949-77.721h136.862
	C360.874,289.498,388.383,321.606,388.383,360.123z"/>
<path style="fill:#5FBAD3;" d="M221.248,282.398h-33.676c-36.439,7.095-63.949,39.203-63.949,77.721v151.876h33.675V360.119
	C157.299,321.601,184.809,289.493,221.248,282.398z"/>
<g>
	<polygon style="fill:#FD5D65;" points="277.834,337.305 274.153,342.368 256.003,367.311 237.854,342.368 234.172,337.305 
		234.172,309.947 263.203,301.818 	"/>
	<polygon style="fill:#FD5D65;" points="245.146,511.995 234.172,390.067 256.003,349.888 277.846,390.067 266.873,511.995 	"/>
</g>
<polygon style="fill:#E54E5C;" points="277.834,337.305 274.153,342.368 256.003,329.479 237.854,342.368 234.172,337.305 
	234.172,309.947 263.203,301.818 "/>
<polygon style="fill:#5FBAD3;" points="318.024,288.209 316.515,298.207 307.69,356.895 278.601,336.237 264.097,325.937 
	256.003,320.189 247.91,325.937 233.406,336.237 204.317,356.895 195.492,298.207 193.982,288.209 "/>
<g>
	<path style="fill:#E0B394;" d="M133.59,186.532c-14.399-0.639-25.86-12.518-25.86-27.068c0-14.957,12.123-27.091,27.091-27.091
		c1.347,0,2.671,0.093,3.971,0.29"/>
	<path style="fill:#E0B394;" d="M378.399,186.532c14.399-0.639,25.872-12.518,25.872-27.068c0-14.957-12.135-27.091-27.103-27.091
		c-1.347,0-2.682,0.105-3.971,0.29"/>
</g>
<path style="fill:#5BB0C4;" d="M318.024,288.209l-1.51,9.998l-21.32,15.491c-9.394,6.828-20.112,10.904-31.098,12.239l-8.094-5.748
	l-8.094,5.748c-10.985-1.335-21.715-5.411-31.098-12.239l-21.32-15.491l-1.51-9.998L318.024,288.209L318.024,288.209z"/>
<path style="fill:#F7CBA4;" d="M342.863,269.002l-47.668,34.628c-23.375,16.989-55.019,16.989-78.383,0l-47.668-34.628
	c-25.199-18.301-38.82-48.562-35.824-79.555l6.503-67.293l1.765-18.266c1.033-10.672,3.495-20.89,7.211-30.459
	c18.336-39.667,57.875-67.061,103.512-68.466c0.65-0.012,1.289-0.023,1.928-0.035c0.581-0.023,1.161-0.023,1.765-0.023
	c30.401,0,58.328,11.543,79.37,30.656c11.694,10.625,21.262,23.584,27.962,38.204c3.635,9.476,6.05,19.578,7.072,30.122
	l1.777,18.429l6.491,67.13C381.671,220.44,368.05,250.701,342.863,269.002z"/>
<g>
	<path style="fill:#E0B394;" d="M162.982,206.308c-0.801,13.551,3.611,26.882,12.344,37.275l49.82,61.22
		c2.601,3.1,5.551,5.702,8.744,7.78c-5.992-2.09-11.752-5.086-17.082-8.953l-47.668-34.628
		c-25.187-18.301-38.808-48.562-35.812-79.555l8.256-85.559c5.644-58.352,54.252-103.012,112.697-103.86
		c-35.998,0.871-76.76,34.802-78.885,70.939L162.982,206.308z"/>
	<path style="fill:#E0B394;" d="M372.184,122.316c-21.332-29.634-44.254-10.114-91.133-10.114
		c-32.735,0-61.197-16.036-76.443-26.638c-11.438,11.438-23.631,19.497-34.43,25.106c-13.888,7.2-25.512,10.37-30.354,11.485
		l1.765-18.266c1.033-10.672,3.495-20.89,7.211-30.459c18.336-39.667,57.875-67.061,103.512-68.466
		c0.65-0.012,1.289-0.023,1.928-0.035c0.581-0.023,1.161-0.023,1.765-0.023c30.401,0,58.328,11.543,79.37,30.656
		c11.694,10.625,21.262,23.584,27.962,38.204c3.635,9.476,6.05,19.578,7.072,30.122L372.184,122.316z"/>
</g>
<path style="fill:#CE7C19;" d="M371.801,118.306c-21.576-34.546-43.801-13.853-91.412-13.853c-31.864,0-59.571-15.607-74.411-25.93
	c-11.136,11.136-23.004,18.974-33.525,24.432c-17.662,9.162-31.562,11.624-31.899,11.682l1.033-10.741
	c5.574-57.736,53.219-102.06,110.827-103.837c0.627-0.012,1.254-0.023,1.87-0.035C254.854,0,255.423,0,256.003,0
	c29.6,0,56.784,11.241,77.268,29.843c20.484,18.614,34.291,44.591,37.136,74.051L371.801,118.306z"/>
<path style="fill:#AF6719;" d="M254.285,0.023c-35.998,0.871-76.769,34.802-78.894,70.939l-2.938,31.992
	c-17.662,9.162-31.562,11.624-31.899,11.682l1.033-10.741c5.574-57.736,53.219-102.06,110.827-103.837
	C253.042,0.046,253.669,0.035,254.285,0.023z"/>
<rect x="294.208" y="407.485" style="fill:#5FBAD3;" width="36.346" height="11.612"/>
<path style="fill:#4D4D4D;" d="M203.895,196.265c-4.81,0-8.709-3.899-8.709-8.709v-13.93c0-4.81,3.899-8.709,8.709-8.709
	s8.709,3.899,8.709,8.709v13.93C212.604,192.366,208.704,196.265,203.895,196.265z"/>
<g>
	<path style="fill:#CE7C19;" d="M327.195,146.918c-1.784,0-3.566-0.68-4.927-2.041c-4.002-4.003-9.323-6.207-14.984-6.207
		c-5.66,0-10.982,2.204-14.983,6.207c-2.722,2.721-7.135,2.722-9.853,0c-2.722-2.721-2.722-7.132-0.001-9.853
		c6.635-6.635,15.456-10.288,24.839-10.288c9.384,0,18.204,3.654,24.84,10.288c2.721,2.721,2.721,7.132-0.001,9.853
		C330.761,146.238,328.977,146.918,327.195,146.918z"/>
	<path style="fill:#CE7C19;" d="M223.806,146.918c-1.784,0-3.566-0.68-4.927-2.04c-8.262-8.262-21.707-8.263-29.97,0
		c-2.721,2.721-7.133,2.721-9.853,0c-2.721-2.721-2.721-7.132,0-9.853c13.697-13.697,35.981-13.695,49.677,0
		c2.721,2.721,2.721,7.132,0,9.853C227.372,146.239,225.589,146.918,223.806,146.918z"/>
</g>
<g>
	<path style="fill:#4D4D4D;" d="M307.283,196.265c-4.811,0-8.709-3.899-8.709-8.709v-13.93c0-4.81,3.898-8.709,8.709-8.709
		c4.811,0,8.709,3.899,8.709,8.709v13.93C315.992,192.366,312.094,196.265,307.283,196.265z"/>
	<path style="fill:#4D4D4D;" d="M223.946,244.171c6.714,1.528,12.001,2.735,17.132,3.385c5.075,0.684,9.782,1.016,14.512,1.014
		c4.73-0.019,9.433-0.348,14.503-1.037c5.126-0.653,10.41-1.85,17.141-3.363c-1.57,6.759-6.195,12.213-11.898,16.034
		c-5.752,3.8-12.758,5.791-19.745,5.781c-6.987-0.009-13.989-2-19.736-5.804C230.153,256.359,225.531,250.915,223.946,244.171z"/>
</g>
<path style="fill:#E0B394;" d="M246.382,223.552l15.117-4.027c4.656-1.24,7.425-6.021,6.185-10.677l-10.301-38.664"/>
<g>
	<polygon style="fill:#5FBAD3;" points="185.157,512 167.739,512 176.448,361.041 	"/>
	<polygon style="fill:#5FBAD3;" points="344.245,512 326.827,512 335.536,361.041 	"/>
</g>
<g>
</g>
<g>
</g>
<g>
</g>
<g>
</g>
<g>
</g>
<g>
</g>
<g>
</g>
<g>
</g>
<g>
</g>
<g>
</g>
<g>
</g>
<g>
</g>
<g>
</g>
<g>
</g>
<g>
</g>
</svg>
