<?xml version="1.0" encoding="iso-8859-1"?>
<!-- Generator: Adobe Illustrator 19.0.0, SVG Export Plug-In . SVG Version: 6.00 Build 0)  -->
<svg version="1.1" id="Layer_1" xmlns="http://www.w3.org/2000/svg" xmlns:xlink="http://www.w3.org/1999/xlink" x="0px" y="0px"
	 viewBox="0 0 504.014 504.014" style="enable-background:new 0 0 504.014 504.014;" xml:space="preserve">
<g transform="translate(1 1)">
	<path style="fill:#FFD0A1;" d="M199.853,358.1L199.853,358.1c-8.533,42.667-34.133,58.027-34.133,58.027l-0.853,1.707l43.52,29.013
		v34.133c0,0,17.067,17.067,42.667,17.067s42.667-17.067,42.667-17.067v-34.133l44.373-29.867l-1.707-2.56
		c0,0-25.6-13.653-34.133-56.32l-0.853-0.853c21.333-16.213,38.4-38.4,43.52-47.787c8.533-17.067,34.133-85.333,34.133-119.467
		c0,0-34.133-25.6-34.133-51.2V104.66c-68.267,51.2-221.867,51.2-221.867,51.2v34.133c0,34.133,25.6,102.4,34.133,119.467
		C162.307,320.554,178.52,341.887,199.853,358.1z"/>
	<path style="fill:#C49AE9;" d="M379.053,429.78l-51.2,34.133l-34.133-17.067l44.373-29.867l6.827-4.267L379.053,429.78z
		 M208.387,446.847l-34.133,17.067l-51.2-34.133l34.133-17.067l7.68,5.12L208.387,446.847z M498.52,498.047H251.053
		c25.6,0,42.667-17.067,42.667-17.067v-34.133l34.133,17.067l51.2-34.133h34.133c27.307,6.827,46.08,19.627,59.733,31.573
		C492.547,480.127,498.52,498.047,498.52,498.047z M251.053,498.047H3.587c0,0,7.68-23.893,34.987-44.373
		c12.8-9.387,29.013-18.773,50.347-23.893h34.133l51.2,34.133l34.133-17.067v34.133C208.387,480.98,225.453,498.047,251.053,498.047
		z"/>
	<path style="fill:#AE938D;" d="M447.32,395.647l25.6,65.707l0,0c-12.8-12.8-32.427-24.747-59.733-31.573h-34.133l-34.133-17.067
		l-6.827,4.267l-1.707-2.56c0,0-25.6-13.653-34.133-56.32l-0.853-0.853c21.333-16.213,38.4-38.4,43.52-47.787
		c8.533-17.067,34.133-85.333,34.133-119.467c0,0-34.133-25.6-34.133-51.2V104.66c-68.267,51.2-221.867,51.2-221.867,51.2v34.133
		c0,34.133,25.6,102.4,34.133,119.467c5.12,10.24,21.333,31.573,42.667,47.787l0,0c-8.533,42.667-34.133,58.027-34.133,58.027
		l-0.853,1.707l-7.68-5.12l-34.133,17.067H88.92c-21.333,5.12-38.4,14.507-50.347,23.893l-0.853-0.853l17.067-57.173
		c0,0,25.6-76.8,25.6-145.067v-76.8C80.387,53.46,148.653,2.26,251.053,2.26c40.107,0,102.4,0,93.867,25.6
		c51.2-8.533,76.8,68.267,76.8,145.067v76.8C421.72,327.38,447.32,395.647,447.32,395.647"/>
</g>
<path style="fill:#51565F;" d="M4.587,503.314c-0.853,0-0.853,0-1.707,0c-2.56-0.853-3.413-3.413-2.56-5.12
	c0.853-2.56,18.773-53.76,88.747-70.827c2.56-0.853,4.267,0.853,5.12,3.413c0.853,2.56-0.853,4.267-3.413,5.12
	c-64.853,16.213-81.92,64.853-81.92,65.707C8,502.46,6.293,503.314,4.587,503.314z M252.053,503.314
	c-27.307,0-45.227-17.92-46.08-17.92c-0.853-0.853-0.853-1.707-0.853-3.413v-31.573l-46.933-31.573l-25.6,12.8l45.227,29.867
	c1.707,1.707,2.56,4.267,0.853,5.973c-1.707,1.707-4.267,2.56-5.973,0.853l-51.2-34.133l-0.853-0.853c0,0-0.853-0.853-0.853-1.707
	s0-0.853,0-1.707c0-0.853,0-0.853,0.853-1.707c0-0.853,0.853-0.853,0.853-0.853l0.853-0.853l34.133-17.067
	c1.707-0.853,3.413-0.853,4.267,0l51.2,34.133c0.853,0.853,1.707,1.707,1.707,3.413v32.427c4.267,3.413,18.773,14.507,38.4,14.507
	s34.133-11.093,38.4-14.507v-31.573c0-1.707,0.853-2.56,1.707-3.413l51.2-34.133c0.853-0.853,2.56-0.853,4.267,0l34.133,17.067
	c1.707,0.853,2.56,3.413,1.707,5.973c0,0.853-0.853,1.707-1.707,1.707l-51.2,34.133c-1.707,1.707-4.267,0.853-5.973-0.853
	c-1.707-1.707-0.853-4.267,0.853-5.973l45.227-29.867l-25.6-12.8l-46.933,31.573v31.573c0,0.853-0.853,2.56-0.853,3.413
	C297.28,485.393,279.36,503.314,252.053,503.314z M499.52,503.314c-1.707,0-3.413-0.853-4.267-2.56
	c0-0.853-17.067-49.493-81.92-65.707c-2.56-0.853-3.413-2.56-3.413-5.12c0.853-2.56,2.56-3.413,5.12-3.413
	c69.973,17.067,87.893,69.12,88.747,70.827c0.853,2.56-0.853,4.267-2.56,5.12C500.373,503.314,500.373,503.314,499.52,503.314z
	 M55.787,400.914c-0.853,0-0.853,0-1.707,0c-2.56-0.853-3.413-3.413-2.56-5.12c0-0.853,25.6-76.8,25.6-143.36v-76.8
	C77.12,62.993,139.413,0.7,252.053,0.7c46.08,0,85.333,0.853,96.427,16.213c1.707,2.56,2.56,5.12,2.56,8.533
	c11.947-0.853,23.893,3.413,34.133,11.947c30.72,26.453,41.813,88.747,41.813,138.24v76.8c0,75.093,24.747,142.507,25.6,143.36
	c0.853,2.56,0,4.267-2.56,5.12c-2.56,0.853-4.267,0-5.12-2.56c0-0.853-25.6-69.973-25.6-146.773v-76.8
	c0-59.733-15.36-111.787-39.253-131.413c-9.387-8.533-20.48-11.093-32.427-9.387c-1.707,0-2.56,0-4.267-1.707
	c-0.853-0.853-1.707-2.56-0.853-4.267c0.853-3.413,0-5.973-0.853-6.827c-9.387-12.8-58.88-12.8-88.747-12.8
	c-75.947,0-166.4,29.013-166.4,166.4v76.8c0,68.267-25.6,145.92-25.6,146.773C59.2,400.06,57.493,400.914,55.787,400.914z
	 M252.053,383.847c-46.933,0-90.453-55.467-97.28-70.827c-7.68-16.213-34.987-85.333-34.987-121.173v-34.133
	c0-2.56,1.707-4.267,4.267-4.267c1.707,0,152.747-0.853,219.307-50.347c1.707-1.707,4.267-0.853,5.973,0.853
	c1.707,1.707,0.853,4.267-0.853,5.973c-63.147,46.933-194.56,51.2-220.16,52.053v29.867c0,33.28,24.747,99.84,33.28,117.76
	c9.387,17.92,50.347,65.707,90.453,65.707s81.067-47.787,90.453-65.707c8.533-17.067,32.427-81.92,33.28-115.2
	c-6.827-5.973-34.133-29.013-34.133-52.907c0-2.56,1.707-4.267,4.267-4.267s4.267,1.707,4.267,4.267
	c0,23.04,32.427,47.787,32.427,47.787c0.853,0.853,1.707,1.707,1.707,3.413c0,35.84-26.453,104.96-34.987,121.173
	C342.507,328.38,298.987,383.847,252.053,383.847z M252.053,324.113c-18.773,0-28.16-9.387-29.013-9.387
	c-1.707-1.707-1.707-4.267,0-5.973c1.707-1.707,4.267-1.707,5.973,0l0,0c0,0,7.68,7.68,22.187,7.68
	c14.507,0,22.187-6.827,22.187-7.68c1.707-1.707,4.267-1.707,5.973,0c1.707,1.707,1.707,4.267,0,5.973
	C280.213,314.727,270.827,324.113,252.053,324.113z M380.053,298.513c-2.56,0-4.267-1.707-4.267-4.267V277.18
	c0-2.56,1.707-4.267,4.267-4.267s4.267,1.707,4.267,4.267v17.067C384.32,296.807,382.613,298.513,380.053,298.513z M124.053,298.513
	c-2.56,0-4.267-1.707-4.267-4.267V277.18c0-2.56,1.707-4.267,4.267-4.267c2.56,0,4.267,1.707,4.267,4.267v17.067
	C128.32,296.807,126.613,298.513,124.053,298.513z M294.72,230.247c-2.56,0-4.267-1.707-4.267-4.267v-11.947
	c-6.827,1.707-8.533,5.973-9.387,5.973c-0.853,1.707-3.413,2.56-5.973,1.707c-1.707-0.853-2.56-3.413-1.707-5.973
	c0-0.853,5.973-11.093,20.48-11.093c14.507,0,20.48,10.24,20.48,11.093c0.853,1.707,0,4.267-1.707,5.973
	c-1.707,0.853-4.267,0-5.973-1.707c0,0-2.56-4.267-9.387-5.973v11.947C298.987,228.54,297.28,230.247,294.72,230.247z
	 M209.387,230.247c-2.56,0-4.267-1.707-4.267-4.267v-11.947c-6.827,1.707-8.533,5.973-9.387,5.973
	c-0.853,1.707-3.413,2.56-5.973,1.707c-1.707-0.853-2.56-3.413-1.707-5.973c0-0.853,5.973-11.093,20.48-11.093
	c14.507,0,20.48,10.24,20.48,11.093c0.853,1.707,0,4.267-1.707,5.973c-1.707,0.853-4.267,0-5.973-1.707c0,0-2.56-4.267-9.387-5.973
	v11.947C213.653,228.54,211.947,230.247,209.387,230.247z"/>
<g>
</g>
<g>
</g>
<g>
</g>
<g>
</g>
<g>
</g>
<g>
</g>
<g>
</g>
<g>
</g>
<g>
</g>
<g>
</g>
<g>
</g>
<g>
</g>
<g>
</g>
<g>
</g>
<g>
</g>
</svg>
